<mxfile host="app.diagrams.net" agent="Mozilla/5.0 (X11; Linux x86_64; rv:136.0) Gecko/20100101 Firefox/136.0" version="26.1.1">
  <diagram name="Page-1" id="RQae2delj8n_NySJQmy2">
    <mxGraphModel dx="4090" dy="3528" grid="1" gridSize="10" guides="1" tooltips="1" connect="1" arrows="1" fold="1" page="1" pageScale="1" pageWidth="850" pageHeight="1100" math="0" shadow="0">
      <root>
        <mxCell id="0" />
        <mxCell id="1" parent="0" />
        <mxCell id="Y12jz9-HYDBSCUgoRnp5-164" value="Niño" style="rounded=0;whiteSpace=wrap;html=1;" parent="1" vertex="1">
          <mxGeometry x="-199.5" y="-780.75" width="200" height="60" as="geometry" />
        </mxCell>
        <mxCell id="Y12jz9-HYDBSCUgoRnp5-165" value="Habitacion" style="rounded=0;whiteSpace=wrap;html=1;" parent="1" vertex="1">
          <mxGeometry x="-520" y="-600" width="200" height="60" as="geometry" />
        </mxCell>
        <mxCell id="Y12jz9-HYDBSCUgoRnp5-166" value="Enfermero" style="rounded=0;whiteSpace=wrap;html=1;" parent="1" vertex="1">
          <mxGeometry x="-839.9999999999998" y="-781" width="200" height="60" as="geometry" />
        </mxCell>
        <mxCell id="Y12jz9-HYDBSCUgoRnp5-277" style="edgeStyle=orthogonalEdgeStyle;rounded=0;orthogonalLoop=1;jettySize=auto;html=1;exitX=0.5;exitY=1;exitDx=0;exitDy=0;endArrow=none;startFill=0;" parent="1" source="Y12jz9-HYDBSCUgoRnp5-167" edge="1">
          <mxGeometry relative="1" as="geometry">
            <mxPoint x="340" y="-909.5" as="targetPoint" />
          </mxGeometry>
        </mxCell>
        <mxCell id="Y12jz9-HYDBSCUgoRnp5-167" value="Medicamento" style="rounded=0;whiteSpace=wrap;html=1;" parent="1" vertex="1">
          <mxGeometry x="240" y="-1008.79" width="200" height="60" as="geometry" />
        </mxCell>
        <mxCell id="Y12jz9-HYDBSCUgoRnp5-170" value="" style="group" parent="1" vertex="1" connectable="0">
          <mxGeometry x="-453.5" y="-628.4984757729337" width="8" height="28" as="geometry" />
        </mxCell>
        <mxCell id="Y12jz9-HYDBSCUgoRnp5-171" value="" style="ellipse;whiteSpace=wrap;html=1;aspect=fixed;fillColor=light-dark(#FFFFFF,#FFFFFF);" parent="Y12jz9-HYDBSCUgoRnp5-170" vertex="1">
          <mxGeometry width="8" height="8" as="geometry" />
        </mxCell>
        <mxCell id="Y12jz9-HYDBSCUgoRnp5-172" style="edgeStyle=orthogonalEdgeStyle;rounded=0;orthogonalLoop=1;jettySize=auto;html=1;endArrow=none;startFill=0;" parent="Y12jz9-HYDBSCUgoRnp5-170" edge="1">
          <mxGeometry relative="1" as="geometry">
            <mxPoint x="4" y="28" as="targetPoint" />
            <mxPoint x="4" y="8" as="sourcePoint" />
          </mxGeometry>
        </mxCell>
        <mxCell id="Y12jz9-HYDBSCUgoRnp5-173" value="&lt;font style=&quot;font-size: 8px;&quot;&gt;id&lt;/font&gt;" style="text;html=1;align=center;verticalAlign=middle;resizable=0;points=[];autosize=1;strokeColor=none;fillColor=none;rotation=-60;" parent="1" vertex="1">
          <mxGeometry x="-464" y="-655.9984757729337" width="30" height="30" as="geometry" />
        </mxCell>
        <mxCell id="Y12jz9-HYDBSCUgoRnp5-174" value="" style="group" parent="1" vertex="1" connectable="0">
          <mxGeometry x="-433.5" y="-629.0384757729337" width="8" height="28" as="geometry" />
        </mxCell>
        <mxCell id="Y12jz9-HYDBSCUgoRnp5-175" value="" style="ellipse;whiteSpace=wrap;html=1;aspect=fixed;fillColor=light-dark(#FFFFFF,transparent);" parent="Y12jz9-HYDBSCUgoRnp5-174" vertex="1">
          <mxGeometry width="8" height="8" as="geometry" />
        </mxCell>
        <mxCell id="Y12jz9-HYDBSCUgoRnp5-176" style="edgeStyle=orthogonalEdgeStyle;rounded=0;orthogonalLoop=1;jettySize=auto;html=1;endArrow=none;startFill=0;" parent="Y12jz9-HYDBSCUgoRnp5-174" edge="1">
          <mxGeometry relative="1" as="geometry">
            <mxPoint x="4" y="28" as="targetPoint" />
            <mxPoint x="4" y="8" as="sourcePoint" />
          </mxGeometry>
        </mxCell>
        <mxCell id="Y12jz9-HYDBSCUgoRnp5-177" value="&lt;font style=&quot;font-size: 8px;&quot;&gt;tamaño&lt;/font&gt;" style="text;html=1;align=center;verticalAlign=middle;resizable=0;points=[];autosize=1;strokeColor=none;fillColor=none;rotation=-60;" parent="1" vertex="1">
          <mxGeometry x="-451" y="-663.9984757729337" width="50" height="30" as="geometry" />
        </mxCell>
        <mxCell id="Y12jz9-HYDBSCUgoRnp5-178" value="" style="group" parent="1" vertex="1" connectable="0">
          <mxGeometry x="-414" y="-628.4984757729337" width="8" height="28" as="geometry" />
        </mxCell>
        <mxCell id="Y12jz9-HYDBSCUgoRnp5-179" value="" style="ellipse;whiteSpace=wrap;html=1;aspect=fixed;fillColor=light-dark(#FFFFFF,transparent);" parent="Y12jz9-HYDBSCUgoRnp5-178" vertex="1">
          <mxGeometry width="8" height="8" as="geometry" />
        </mxCell>
        <mxCell id="Y12jz9-HYDBSCUgoRnp5-180" style="edgeStyle=orthogonalEdgeStyle;rounded=0;orthogonalLoop=1;jettySize=auto;html=1;endArrow=none;startFill=0;" parent="Y12jz9-HYDBSCUgoRnp5-178" edge="1">
          <mxGeometry relative="1" as="geometry">
            <mxPoint x="4" y="28" as="targetPoint" />
            <mxPoint x="4" y="8" as="sourcePoint" />
          </mxGeometry>
        </mxCell>
        <mxCell id="Y12jz9-HYDBSCUgoRnp5-181" value="&lt;font style=&quot;font-size: 8px;&quot;&gt;descripcion&lt;/font&gt;" style="text;html=1;align=center;verticalAlign=middle;resizable=0;points=[];autosize=1;strokeColor=none;fillColor=none;rotation=-60;" parent="1" vertex="1">
          <mxGeometry x="-439.5" y="-673.9984757729337" width="80" height="30" as="geometry" />
        </mxCell>
        <mxCell id="Y12jz9-HYDBSCUgoRnp5-182" value="" style="group" parent="1" vertex="1" connectable="0">
          <mxGeometry x="-393.5" y="-628.5384757729337" width="8" height="28" as="geometry" />
        </mxCell>
        <mxCell id="Y12jz9-HYDBSCUgoRnp5-183" value="" style="ellipse;whiteSpace=wrap;html=1;aspect=fixed;fillColor=light-dark(#FFFFFF,transparent);" parent="Y12jz9-HYDBSCUgoRnp5-182" vertex="1">
          <mxGeometry width="8" height="8" as="geometry" />
        </mxCell>
        <mxCell id="Y12jz9-HYDBSCUgoRnp5-184" style="edgeStyle=orthogonalEdgeStyle;rounded=0;orthogonalLoop=1;jettySize=auto;html=1;endArrow=none;startFill=0;" parent="Y12jz9-HYDBSCUgoRnp5-182" edge="1">
          <mxGeometry relative="1" as="geometry">
            <mxPoint x="4" y="28" as="targetPoint" />
            <mxPoint x="4" y="8" as="sourcePoint" />
          </mxGeometry>
        </mxCell>
        <mxCell id="Y12jz9-HYDBSCUgoRnp5-185" value="&lt;font style=&quot;font-size: 8px;&quot;&gt;ubicacion&lt;/font&gt;" style="text;html=1;align=center;verticalAlign=middle;resizable=0;points=[];autosize=1;strokeColor=none;fillColor=none;rotation=-60;" parent="1" vertex="1">
          <mxGeometry x="-417" y="-669.9984757729337" width="70" height="30" as="geometry" />
        </mxCell>
        <mxCell id="Y12jz9-HYDBSCUgoRnp5-191" style="edgeStyle=orthogonalEdgeStyle;rounded=0;orthogonalLoop=1;jettySize=auto;html=1;entryX=1;entryY=0.5;entryDx=0;entryDy=0;endArrow=none;startFill=0;" parent="1" source="Y12jz9-HYDBSCUgoRnp5-190" target="Y12jz9-HYDBSCUgoRnp5-165" edge="1">
          <mxGeometry relative="1" as="geometry">
            <mxPoint x="-321" y="-561.04" as="targetPoint" />
          </mxGeometry>
        </mxCell>
        <mxCell id="Y12jz9-HYDBSCUgoRnp5-192" style="edgeStyle=orthogonalEdgeStyle;rounded=0;orthogonalLoop=1;jettySize=auto;html=1;entryX=1;entryY=0.5;entryDx=0;entryDy=0;endArrow=none;startFill=0;exitX=1;exitY=0.5;exitDx=0;exitDy=0;" parent="1" source="Y12jz9-HYDBSCUgoRnp5-190" target="Y12jz9-HYDBSCUgoRnp5-164" edge="1">
          <mxGeometry relative="1" as="geometry">
            <mxPoint x="-49" y="-561.08" as="targetPoint" />
            <Array as="points">
              <mxPoint x="30" y="-570" />
              <mxPoint x="30" y="-751" />
            </Array>
          </mxGeometry>
        </mxCell>
        <mxCell id="Y12jz9-HYDBSCUgoRnp5-190" value="hospeda" style="rhombus;whiteSpace=wrap;html=1;" parent="1" vertex="1">
          <mxGeometry x="-241.5" y="-610.0397459621557" width="80" height="80" as="geometry" />
        </mxCell>
        <mxCell id="Y12jz9-HYDBSCUgoRnp5-193" value="(0,n)" style="text;html=1;align=center;verticalAlign=middle;resizable=0;points=[];autosize=1;strokeColor=none;fillColor=none;" parent="1" vertex="1">
          <mxGeometry x="-311" y="-602.04" width="60" height="30" as="geometry" />
        </mxCell>
        <mxCell id="Y12jz9-HYDBSCUgoRnp5-194" value="(0,n)" style="text;html=1;align=center;verticalAlign=middle;resizable=0;points=[];autosize=1;strokeColor=none;fillColor=none;" parent="1" vertex="1">
          <mxGeometry x="-143.5" y="-602.04" width="60" height="30" as="geometry" />
        </mxCell>
        <mxCell id="Y12jz9-HYDBSCUgoRnp5-195" style="edgeStyle=orthogonalEdgeStyle;rounded=0;orthogonalLoop=1;jettySize=auto;html=1;endArrow=none;startFill=0;entryX=0;entryY=0.5;entryDx=0;entryDy=0;exitX=0;exitY=0.5;exitDx=0;exitDy=0;" parent="1" source="Y12jz9-HYDBSCUgoRnp5-197" target="Y12jz9-HYDBSCUgoRnp5-166" edge="1">
          <mxGeometry relative="1" as="geometry">
            <mxPoint x="-728" y="-569.96" as="targetPoint" />
            <Array as="points">
              <mxPoint x="-870" y="-570" />
              <mxPoint x="-870" y="-750" />
              <mxPoint x="-840" y="-750" />
            </Array>
          </mxGeometry>
        </mxCell>
        <mxCell id="Y12jz9-HYDBSCUgoRnp5-196" style="edgeStyle=orthogonalEdgeStyle;rounded=0;orthogonalLoop=1;jettySize=auto;html=1;endArrow=none;startFill=0;" parent="1" source="Y12jz9-HYDBSCUgoRnp5-197" edge="1">
          <mxGeometry relative="1" as="geometry">
            <mxPoint x="-520" y="-569.96" as="targetPoint" />
          </mxGeometry>
        </mxCell>
        <mxCell id="Y12jz9-HYDBSCUgoRnp5-197" value="trabaja" style="rhombus;whiteSpace=wrap;html=1;" parent="1" vertex="1">
          <mxGeometry x="-680.5" y="-609.9997459621558" width="80" height="80" as="geometry" />
        </mxCell>
        <mxCell id="Y12jz9-HYDBSCUgoRnp5-198" value="(0,n)" style="text;html=1;align=center;verticalAlign=middle;resizable=0;points=[];autosize=1;strokeColor=none;fillColor=none;" parent="1" vertex="1">
          <mxGeometry x="-740.5" y="-601.04" width="60" height="30" as="geometry" />
        </mxCell>
        <mxCell id="Y12jz9-HYDBSCUgoRnp5-199" value="(0,n)" style="text;html=1;align=center;verticalAlign=middle;resizable=0;points=[];autosize=1;strokeColor=none;fillColor=none;" parent="1" vertex="1">
          <mxGeometry x="-576" y="-600" width="60" height="30" as="geometry" />
        </mxCell>
        <mxCell id="Y12jz9-HYDBSCUgoRnp5-200" value="" style="group" parent="1" vertex="1" connectable="0">
          <mxGeometry x="-809.9999999999998" y="-808.7484757729337" width="8" height="28" as="geometry" />
        </mxCell>
        <mxCell id="Y12jz9-HYDBSCUgoRnp5-201" value="" style="ellipse;whiteSpace=wrap;html=1;aspect=fixed;fillColor=light-dark(#FFFFFF,#FFFFFF);" parent="Y12jz9-HYDBSCUgoRnp5-200" vertex="1">
          <mxGeometry width="8" height="8" as="geometry" />
        </mxCell>
        <mxCell id="Y12jz9-HYDBSCUgoRnp5-202" style="edgeStyle=orthogonalEdgeStyle;rounded=0;orthogonalLoop=1;jettySize=auto;html=1;endArrow=none;startFill=0;" parent="Y12jz9-HYDBSCUgoRnp5-200" edge="1">
          <mxGeometry relative="1" as="geometry">
            <mxPoint x="4" y="28" as="targetPoint" />
            <mxPoint x="4" y="8" as="sourcePoint" />
          </mxGeometry>
        </mxCell>
        <mxCell id="Y12jz9-HYDBSCUgoRnp5-203" value="&lt;font style=&quot;font-size: 8px;&quot;&gt;matricula&lt;/font&gt;" style="text;html=1;align=center;verticalAlign=middle;resizable=0;points=[];autosize=1;strokeColor=none;fillColor=none;rotation=-60;" parent="1" vertex="1">
          <mxGeometry x="-831.9999999999998" y="-849.9984757729337" width="70" height="30" as="geometry" />
        </mxCell>
        <mxCell id="Y12jz9-HYDBSCUgoRnp5-216" value="" style="group" parent="1" vertex="1" connectable="0">
          <mxGeometry x="-399" y="-1026.9984757729337" width="8" height="28" as="geometry" />
        </mxCell>
        <mxCell id="Y12jz9-HYDBSCUgoRnp5-217" value="" style="ellipse;whiteSpace=wrap;html=1;aspect=fixed;fillColor=light-dark(#FFFFFF,transparent);" parent="Y12jz9-HYDBSCUgoRnp5-216" vertex="1">
          <mxGeometry width="8" height="8" as="geometry" />
        </mxCell>
        <mxCell id="Y12jz9-HYDBSCUgoRnp5-218" style="edgeStyle=orthogonalEdgeStyle;rounded=0;orthogonalLoop=1;jettySize=auto;html=1;endArrow=none;startFill=0;" parent="Y12jz9-HYDBSCUgoRnp5-216" edge="1">
          <mxGeometry relative="1" as="geometry">
            <mxPoint x="4" y="28" as="targetPoint" />
            <mxPoint x="4" y="8" as="sourcePoint" />
          </mxGeometry>
        </mxCell>
        <mxCell id="Y12jz9-HYDBSCUgoRnp5-219" value="&lt;font style=&quot;font-size: 8px;&quot;&gt;fecha_nac&lt;/font&gt;" style="text;html=1;align=center;verticalAlign=middle;resizable=0;points=[];autosize=1;strokeColor=none;fillColor=none;rotation=-60;" parent="1" vertex="1">
          <mxGeometry x="-422" y="-1067.9984757729337" width="70" height="30" as="geometry" />
        </mxCell>
        <mxCell id="Y12jz9-HYDBSCUgoRnp5-220" value="" style="group" parent="1" vertex="1" connectable="0">
          <mxGeometry x="-790" y="-808.7484757729337" width="8" height="28" as="geometry" />
        </mxCell>
        <mxCell id="Y12jz9-HYDBSCUgoRnp5-221" value="" style="ellipse;whiteSpace=wrap;html=1;aspect=fixed;fillColor=light-dark(#FFFFFF,transparent);" parent="Y12jz9-HYDBSCUgoRnp5-220" vertex="1">
          <mxGeometry width="8" height="8" as="geometry" />
        </mxCell>
        <mxCell id="Y12jz9-HYDBSCUgoRnp5-222" style="edgeStyle=orthogonalEdgeStyle;rounded=0;orthogonalLoop=1;jettySize=auto;html=1;endArrow=none;startFill=0;" parent="Y12jz9-HYDBSCUgoRnp5-220" edge="1">
          <mxGeometry relative="1" as="geometry">
            <mxPoint x="4" y="28" as="targetPoint" />
            <mxPoint x="4" y="8" as="sourcePoint" />
          </mxGeometry>
        </mxCell>
        <mxCell id="Y12jz9-HYDBSCUgoRnp5-223" value="&lt;font style=&quot;font-size: 8px;&quot;&gt;cant_hijos&lt;/font&gt;" style="text;html=1;align=center;verticalAlign=middle;resizable=0;points=[];autosize=1;strokeColor=none;fillColor=none;rotation=-60;" parent="1" vertex="1">
          <mxGeometry x="-812" y="-851.9984757729337" width="70" height="30" as="geometry" />
        </mxCell>
        <mxCell id="Y12jz9-HYDBSCUgoRnp5-224" value="" style="group" parent="1" vertex="1" connectable="0">
          <mxGeometry x="-458" y="-1026.7484757729337" width="8" height="28" as="geometry" />
        </mxCell>
        <mxCell id="Y12jz9-HYDBSCUgoRnp5-225" value="" style="ellipse;whiteSpace=wrap;html=1;aspect=fixed;fillColor=light-dark(#FFFFFF,#FFFFFF);" parent="Y12jz9-HYDBSCUgoRnp5-224" vertex="1">
          <mxGeometry width="8" height="8" as="geometry" />
        </mxCell>
        <mxCell id="Y12jz9-HYDBSCUgoRnp5-226" style="edgeStyle=orthogonalEdgeStyle;rounded=0;orthogonalLoop=1;jettySize=auto;html=1;endArrow=none;startFill=0;" parent="Y12jz9-HYDBSCUgoRnp5-224" edge="1">
          <mxGeometry relative="1" as="geometry">
            <mxPoint x="4" y="28" as="targetPoint" />
            <mxPoint x="4" y="8" as="sourcePoint" />
          </mxGeometry>
        </mxCell>
        <mxCell id="Y12jz9-HYDBSCUgoRnp5-227" value="&lt;font style=&quot;font-size: 8px;&quot;&gt;dni&lt;/font&gt;" style="text;html=1;align=center;verticalAlign=middle;resizable=0;points=[];autosize=1;strokeColor=none;fillColor=none;rotation=-60;" parent="1" vertex="1">
          <mxGeometry x="-474" y="-1055.7084757729338" width="40" height="30" as="geometry" />
        </mxCell>
        <mxCell id="Y12jz9-HYDBSCUgoRnp5-228" value="" style="group" parent="1" vertex="1" connectable="0">
          <mxGeometry x="-438" y="-1027.2884757729337" width="8" height="28" as="geometry" />
        </mxCell>
        <mxCell id="Y12jz9-HYDBSCUgoRnp5-229" value="" style="ellipse;whiteSpace=wrap;html=1;aspect=fixed;fillColor=light-dark(#FFFFFF,transparent);" parent="Y12jz9-HYDBSCUgoRnp5-228" vertex="1">
          <mxGeometry width="8" height="8" as="geometry" />
        </mxCell>
        <mxCell id="Y12jz9-HYDBSCUgoRnp5-230" style="edgeStyle=orthogonalEdgeStyle;rounded=0;orthogonalLoop=1;jettySize=auto;html=1;endArrow=none;startFill=0;" parent="Y12jz9-HYDBSCUgoRnp5-228" edge="1">
          <mxGeometry relative="1" as="geometry">
            <mxPoint x="4" y="28" as="targetPoint" />
            <mxPoint x="4" y="8" as="sourcePoint" />
          </mxGeometry>
        </mxCell>
        <mxCell id="Y12jz9-HYDBSCUgoRnp5-231" value="&lt;font style=&quot;font-size: 8px;&quot;&gt;nombre&lt;/font&gt;" style="text;html=1;align=center;verticalAlign=middle;resizable=0;points=[];autosize=1;strokeColor=none;fillColor=none;rotation=-60;" parent="1" vertex="1">
          <mxGeometry x="-455" y="-1061.9984757729337" width="50" height="30" as="geometry" />
        </mxCell>
        <mxCell id="Y12jz9-HYDBSCUgoRnp5-232" value="" style="group" parent="1" vertex="1" connectable="0">
          <mxGeometry x="-418.5" y="-1026.7484757729337" width="8" height="28" as="geometry" />
        </mxCell>
        <mxCell id="Y12jz9-HYDBSCUgoRnp5-233" value="" style="ellipse;whiteSpace=wrap;html=1;aspect=fixed;fillColor=light-dark(#FFFFFF,transparent);" parent="Y12jz9-HYDBSCUgoRnp5-232" vertex="1">
          <mxGeometry width="8" height="8" as="geometry" />
        </mxCell>
        <mxCell id="Y12jz9-HYDBSCUgoRnp5-234" style="edgeStyle=orthogonalEdgeStyle;rounded=0;orthogonalLoop=1;jettySize=auto;html=1;endArrow=none;startFill=0;" parent="Y12jz9-HYDBSCUgoRnp5-232" edge="1">
          <mxGeometry relative="1" as="geometry">
            <mxPoint x="4" y="28" as="targetPoint" />
            <mxPoint x="4" y="8" as="sourcePoint" />
          </mxGeometry>
        </mxCell>
        <mxCell id="Y12jz9-HYDBSCUgoRnp5-239" value="&lt;font style=&quot;font-size: 8px;&quot;&gt;apellido&lt;/font&gt;" style="text;html=1;align=center;verticalAlign=middle;resizable=0;points=[];autosize=1;strokeColor=none;fillColor=none;rotation=-60;" parent="1" vertex="1">
          <mxGeometry x="-439" y="-1066.9984757729337" width="60" height="30" as="geometry" />
        </mxCell>
        <mxCell id="Y12jz9-HYDBSCUgoRnp5-240" value="" style="group" parent="1" vertex="1" connectable="0">
          <mxGeometry x="-74" y="-809.2484757729337" width="8" height="28" as="geometry" />
        </mxCell>
        <mxCell id="Y12jz9-HYDBSCUgoRnp5-241" value="" style="ellipse;whiteSpace=wrap;html=1;aspect=fixed;fillColor=light-dark(#FFFFFF,transparent);" parent="Y12jz9-HYDBSCUgoRnp5-240" vertex="1">
          <mxGeometry width="8" height="8" as="geometry" />
        </mxCell>
        <mxCell id="Y12jz9-HYDBSCUgoRnp5-242" style="edgeStyle=orthogonalEdgeStyle;rounded=0;orthogonalLoop=1;jettySize=auto;html=1;endArrow=none;startFill=0;" parent="Y12jz9-HYDBSCUgoRnp5-240" edge="1">
          <mxGeometry relative="1" as="geometry">
            <mxPoint x="4" y="28" as="targetPoint" />
            <mxPoint x="4" y="8" as="sourcePoint" />
          </mxGeometry>
        </mxCell>
        <mxCell id="Y12jz9-HYDBSCUgoRnp5-243" value="&lt;font style=&quot;font-size: 8px;&quot;&gt;edad&lt;/font&gt;" style="text;html=1;align=center;verticalAlign=middle;resizable=0;points=[];autosize=1;strokeColor=none;fillColor=none;rotation=-60;" parent="1" vertex="1">
          <mxGeometry x="-69" y="-841.9984757729337" width="40" height="30" as="geometry" />
        </mxCell>
        <mxCell id="Y12jz9-HYDBSCUgoRnp5-244" value="" style="group" parent="1" vertex="1" connectable="0">
          <mxGeometry x="-53.5" y="-808.9984757729337" width="8" height="28" as="geometry" />
        </mxCell>
        <mxCell id="Y12jz9-HYDBSCUgoRnp5-245" value="" style="ellipse;whiteSpace=wrap;html=1;aspect=fixed;fillColor=light-dark(#FFFFFF,transparent);" parent="Y12jz9-HYDBSCUgoRnp5-244" vertex="1">
          <mxGeometry width="8" height="8" as="geometry" />
        </mxCell>
        <mxCell id="Y12jz9-HYDBSCUgoRnp5-246" style="edgeStyle=orthogonalEdgeStyle;rounded=0;orthogonalLoop=1;jettySize=auto;html=1;endArrow=none;startFill=0;" parent="Y12jz9-HYDBSCUgoRnp5-244" edge="1">
          <mxGeometry relative="1" as="geometry">
            <mxPoint x="4" y="28" as="targetPoint" />
            <mxPoint x="4" y="8" as="sourcePoint" />
          </mxGeometry>
        </mxCell>
        <mxCell id="Y12jz9-HYDBSCUgoRnp5-247" value="&lt;font style=&quot;font-size: 8px;&quot;&gt;peso&lt;/font&gt;" style="text;html=1;align=center;verticalAlign=middle;resizable=0;points=[];autosize=1;strokeColor=none;fillColor=none;rotation=-60;" parent="1" vertex="1">
          <mxGeometry x="-89" y="-842.9984757729337" width="40" height="30" as="geometry" />
        </mxCell>
        <mxCell id="Y12jz9-HYDBSCUgoRnp5-323" style="edgeStyle=orthogonalEdgeStyle;rounded=0;orthogonalLoop=1;jettySize=auto;html=1;entryX=0.5;entryY=0;entryDx=0;entryDy=0;endArrow=none;startFill=0;" parent="1" source="Y12jz9-HYDBSCUgoRnp5-248" target="Y12jz9-HYDBSCUgoRnp5-164" edge="1">
          <mxGeometry relative="1" as="geometry" />
        </mxCell>
        <mxCell id="Y12jz9-HYDBSCUgoRnp5-248" value="Persona" style="rounded=0;whiteSpace=wrap;html=1;" parent="1" vertex="1">
          <mxGeometry x="-520" y="-999" width="200" height="60" as="geometry" />
        </mxCell>
        <mxCell id="Y12jz9-HYDBSCUgoRnp5-249" value="" style="endArrow=none;startArrow=none;html=1;rounded=0;exitX=0.75;exitY=0;exitDx=0;exitDy=0;startFill=0;entryX=0.25;entryY=0;entryDx=0;entryDy=0;" parent="1" source="Y12jz9-HYDBSCUgoRnp5-166" target="Y12jz9-HYDBSCUgoRnp5-164" edge="1">
          <mxGeometry width="50" height="50" relative="1" as="geometry">
            <mxPoint x="-741.12" y="-819.5" as="sourcePoint" />
            <mxPoint x="-100.62" y="-819.25" as="targetPoint" />
            <Array as="points">
              <mxPoint x="-690" y="-880" />
              <mxPoint x="-405.37" y="-879.7897459621556" />
              <mxPoint x="-150" y="-880" />
            </Array>
          </mxGeometry>
        </mxCell>
        <mxCell id="Y12jz9-HYDBSCUgoRnp5-250" value="" style="endArrow=classic;html=1;rounded=0;entryX=0.5;entryY=1;entryDx=0;entryDy=0;endFill=1;" parent="1" edge="1">
          <mxGeometry width="50" height="50" relative="1" as="geometry">
            <mxPoint x="-421" y="-880" as="sourcePoint" />
            <mxPoint x="-421" y="-939" as="targetPoint" />
          </mxGeometry>
        </mxCell>
        <mxCell id="Y12jz9-HYDBSCUgoRnp5-252" value="(P,E)" style="text;html=1;align=center;verticalAlign=middle;resizable=0;points=[];autosize=1;strokeColor=none;fillColor=none;" parent="1" vertex="1">
          <mxGeometry x="-425.5" y="-938.9997459621557" width="60" height="30" as="geometry" />
        </mxCell>
        <mxCell id="Y12jz9-HYDBSCUgoRnp5-253" value="" style="group" parent="1" vertex="1" connectable="0">
          <mxGeometry x="-34" y="-808.9984757729337" width="8" height="28" as="geometry" />
        </mxCell>
        <mxCell id="Y12jz9-HYDBSCUgoRnp5-254" value="" style="ellipse;whiteSpace=wrap;html=1;aspect=fixed;fillColor=light-dark(#FFFFFF,transparent);" parent="Y12jz9-HYDBSCUgoRnp5-253" vertex="1">
          <mxGeometry width="8" height="8" as="geometry" />
        </mxCell>
        <mxCell id="Y12jz9-HYDBSCUgoRnp5-255" style="edgeStyle=orthogonalEdgeStyle;rounded=0;orthogonalLoop=1;jettySize=auto;html=1;endArrow=none;startFill=0;" parent="Y12jz9-HYDBSCUgoRnp5-253" edge="1">
          <mxGeometry relative="1" as="geometry">
            <mxPoint x="4" y="28" as="targetPoint" />
            <mxPoint x="4" y="8" as="sourcePoint" />
          </mxGeometry>
        </mxCell>
        <mxCell id="Y12jz9-HYDBSCUgoRnp5-256" value="&lt;font style=&quot;font-size: 8px;&quot;&gt;genero&lt;/font&gt;" style="text;html=1;align=center;verticalAlign=middle;resizable=0;points=[];autosize=1;strokeColor=none;fillColor=none;rotation=-60;" parent="1" vertex="1">
          <mxGeometry x="-52" y="-846.9984757729337" width="50" height="30" as="geometry" />
        </mxCell>
        <mxCell id="Y12jz9-HYDBSCUgoRnp5-259" value="" style="group" parent="1" vertex="1" connectable="0">
          <mxGeometry x="367" y="-1037.0384757729337" width="8" height="28" as="geometry" />
        </mxCell>
        <mxCell id="Y12jz9-HYDBSCUgoRnp5-260" value="" style="ellipse;whiteSpace=wrap;html=1;aspect=fixed;fillColor=light-dark(#FFFFFF,transparent);" parent="Y12jz9-HYDBSCUgoRnp5-259" vertex="1">
          <mxGeometry width="8" height="8" as="geometry" />
        </mxCell>
        <mxCell id="Y12jz9-HYDBSCUgoRnp5-261" style="edgeStyle=orthogonalEdgeStyle;rounded=0;orthogonalLoop=1;jettySize=auto;html=1;endArrow=none;startFill=0;" parent="Y12jz9-HYDBSCUgoRnp5-259" edge="1">
          <mxGeometry relative="1" as="geometry">
            <mxPoint x="4" y="28" as="targetPoint" />
            <mxPoint x="4" y="8" as="sourcePoint" />
          </mxGeometry>
        </mxCell>
        <mxCell id="Y12jz9-HYDBSCUgoRnp5-262" value="&lt;font style=&quot;font-size: 8px;&quot;&gt;nom_lab&lt;/font&gt;" style="text;html=1;align=center;verticalAlign=middle;resizable=0;points=[];autosize=1;strokeColor=none;fillColor=none;rotation=-60;" parent="1" vertex="1">
          <mxGeometry x="347" y="-1077.0384757729337" width="60" height="30" as="geometry" />
        </mxCell>
        <mxCell id="Y12jz9-HYDBSCUgoRnp5-263" value="" style="group" parent="1" vertex="1" connectable="0">
          <mxGeometry x="308" y="-1036.7884757729337" width="8" height="28" as="geometry" />
        </mxCell>
        <mxCell id="Y12jz9-HYDBSCUgoRnp5-264" value="" style="ellipse;whiteSpace=wrap;html=1;aspect=fixed;fillColor=light-dark(#FFFFFF,#FFFFFF);" parent="Y12jz9-HYDBSCUgoRnp5-263" vertex="1">
          <mxGeometry width="8" height="8" as="geometry" />
        </mxCell>
        <mxCell id="Y12jz9-HYDBSCUgoRnp5-265" style="edgeStyle=orthogonalEdgeStyle;rounded=0;orthogonalLoop=1;jettySize=auto;html=1;endArrow=none;startFill=0;" parent="Y12jz9-HYDBSCUgoRnp5-263" edge="1">
          <mxGeometry relative="1" as="geometry">
            <mxPoint x="4" y="28" as="targetPoint" />
            <mxPoint x="4" y="8" as="sourcePoint" />
          </mxGeometry>
        </mxCell>
        <mxCell id="Y12jz9-HYDBSCUgoRnp5-266" value="&lt;font style=&quot;font-size: 8px;&quot;&gt;nom_comercial&lt;/font&gt;" style="text;html=1;align=center;verticalAlign=middle;resizable=0;points=[];autosize=1;strokeColor=none;fillColor=none;rotation=-60;" parent="1" vertex="1">
          <mxGeometry x="279" y="-1088.0384757729337" width="90" height="30" as="geometry" />
        </mxCell>
        <mxCell id="Y12jz9-HYDBSCUgoRnp5-267" value="" style="group" parent="1" vertex="1" connectable="0">
          <mxGeometry x="328" y="-1037.3284757729336" width="8" height="28" as="geometry" />
        </mxCell>
        <mxCell id="Y12jz9-HYDBSCUgoRnp5-268" value="" style="ellipse;whiteSpace=wrap;html=1;aspect=fixed;fillColor=light-dark(#FFFFFF,#FFFFFF);" parent="Y12jz9-HYDBSCUgoRnp5-267" vertex="1">
          <mxGeometry width="8" height="8" as="geometry" />
        </mxCell>
        <mxCell id="Y12jz9-HYDBSCUgoRnp5-269" style="edgeStyle=orthogonalEdgeStyle;rounded=0;orthogonalLoop=1;jettySize=auto;html=1;endArrow=none;startFill=0;" parent="Y12jz9-HYDBSCUgoRnp5-267" edge="1">
          <mxGeometry relative="1" as="geometry">
            <mxPoint x="4" y="28" as="targetPoint" />
            <mxPoint x="4" y="8" as="sourcePoint" />
          </mxGeometry>
        </mxCell>
        <mxCell id="Y12jz9-HYDBSCUgoRnp5-270" value="&lt;font style=&quot;font-size: 8px;&quot;&gt;presentacion&lt;/font&gt;" style="text;html=1;align=center;verticalAlign=middle;resizable=0;points=[];autosize=1;strokeColor=none;fillColor=none;rotation=-60;" parent="1" vertex="1">
          <mxGeometry x="304" y="-1087.0384757729337" width="80" height="30" as="geometry" />
        </mxCell>
        <mxCell id="Y12jz9-HYDBSCUgoRnp5-271" value="" style="group" parent="1" vertex="1" connectable="0">
          <mxGeometry x="347.5" y="-1036.7884757729337" width="8" height="28" as="geometry" />
        </mxCell>
        <mxCell id="Y12jz9-HYDBSCUgoRnp5-272" value="" style="ellipse;whiteSpace=wrap;html=1;aspect=fixed;fillColor=light-dark(#FFFFFF,transparent);" parent="Y12jz9-HYDBSCUgoRnp5-271" vertex="1">
          <mxGeometry width="8" height="8" as="geometry" />
        </mxCell>
        <mxCell id="Y12jz9-HYDBSCUgoRnp5-273" style="edgeStyle=orthogonalEdgeStyle;rounded=0;orthogonalLoop=1;jettySize=auto;html=1;endArrow=none;startFill=0;" parent="Y12jz9-HYDBSCUgoRnp5-271" edge="1">
          <mxGeometry relative="1" as="geometry">
            <mxPoint x="4" y="28" as="targetPoint" />
            <mxPoint x="4" y="8" as="sourcePoint" />
          </mxGeometry>
        </mxCell>
        <mxCell id="Y12jz9-HYDBSCUgoRnp5-274" value="&lt;font style=&quot;font-size: 8px;&quot;&gt;nom_generico&lt;/font&gt;" style="text;html=1;align=center;verticalAlign=middle;resizable=0;points=[];autosize=1;strokeColor=none;fillColor=none;rotation=-60;" parent="1" vertex="1">
          <mxGeometry x="323" y="-1087.0384757729337" width="80" height="30" as="geometry" />
        </mxCell>
        <mxCell id="Y12jz9-HYDBSCUgoRnp5-275" value="Medicacion" style="rounded=0;whiteSpace=wrap;html=1;" parent="1" vertex="1">
          <mxGeometry x="240" y="-789.75" width="200" height="60" as="geometry" />
        </mxCell>
        <mxCell id="Y12jz9-HYDBSCUgoRnp5-278" style="edgeStyle=orthogonalEdgeStyle;rounded=0;orthogonalLoop=1;jettySize=auto;html=1;entryX=0.5;entryY=0;entryDx=0;entryDy=0;endArrow=none;startFill=0;" parent="1" source="Y12jz9-HYDBSCUgoRnp5-276" target="Y12jz9-HYDBSCUgoRnp5-275" edge="1">
          <mxGeometry relative="1" as="geometry" />
        </mxCell>
        <mxCell id="Y12jz9-HYDBSCUgoRnp5-276" value="med_med" style="rhombus;whiteSpace=wrap;html=1;" parent="1" vertex="1">
          <mxGeometry x="300" y="-908.4997459621557" width="80" height="80" as="geometry" />
        </mxCell>
        <mxCell id="Y12jz9-HYDBSCUgoRnp5-279" value="(0,n)" style="text;html=1;align=center;verticalAlign=middle;resizable=0;points=[];autosize=1;strokeColor=none;fillColor=none;" parent="1" vertex="1">
          <mxGeometry x="280" y="-948.25" width="60" height="30" as="geometry" />
        </mxCell>
        <mxCell id="Y12jz9-HYDBSCUgoRnp5-280" value="(1,1)" style="text;html=1;align=center;verticalAlign=middle;resizable=0;points=[];autosize=1;strokeColor=none;fillColor=none;" parent="1" vertex="1">
          <mxGeometry x="280" y="-820.5" width="60" height="30" as="geometry" />
        </mxCell>
        <mxCell id="Y12jz9-HYDBSCUgoRnp5-281" value="" style="group" parent="1" vertex="1" connectable="0">
          <mxGeometry x="416" y="-817.7484757729337" width="8" height="28" as="geometry" />
        </mxCell>
        <mxCell id="Y12jz9-HYDBSCUgoRnp5-282" value="" style="ellipse;whiteSpace=wrap;html=1;aspect=fixed;fillColor=light-dark(#FFFFFF,transparent);" parent="Y12jz9-HYDBSCUgoRnp5-281" vertex="1">
          <mxGeometry width="8" height="8" as="geometry" />
        </mxCell>
        <mxCell id="Y12jz9-HYDBSCUgoRnp5-283" style="edgeStyle=orthogonalEdgeStyle;rounded=0;orthogonalLoop=1;jettySize=auto;html=1;endArrow=none;startFill=0;" parent="Y12jz9-HYDBSCUgoRnp5-281" edge="1">
          <mxGeometry relative="1" as="geometry">
            <mxPoint x="4" y="28" as="targetPoint" />
            <mxPoint x="4" y="8" as="sourcePoint" />
          </mxGeometry>
        </mxCell>
        <mxCell id="Y12jz9-HYDBSCUgoRnp5-284" value="&lt;font style=&quot;font-size: 8px;&quot;&gt;cant_toma&lt;/font&gt;" style="text;html=1;align=center;verticalAlign=middle;resizable=0;points=[];autosize=1;strokeColor=none;fillColor=none;rotation=-60;" parent="1" vertex="1">
          <mxGeometry x="393" y="-860.4984757729337" width="70" height="30" as="geometry" />
        </mxCell>
        <mxCell id="Y12jz9-HYDBSCUgoRnp5-293" value="" style="group" parent="1" vertex="1" connectable="0">
          <mxGeometry x="396.5" y="-817.4984757729337" width="8" height="28" as="geometry" />
        </mxCell>
        <mxCell id="Y12jz9-HYDBSCUgoRnp5-294" value="" style="ellipse;whiteSpace=wrap;html=1;aspect=fixed;fillColor=light-dark(#FFFFFF,transparent);" parent="Y12jz9-HYDBSCUgoRnp5-293" vertex="1">
          <mxGeometry width="8" height="8" as="geometry" />
        </mxCell>
        <mxCell id="Y12jz9-HYDBSCUgoRnp5-295" style="edgeStyle=orthogonalEdgeStyle;rounded=0;orthogonalLoop=1;jettySize=auto;html=1;endArrow=none;startFill=0;" parent="Y12jz9-HYDBSCUgoRnp5-293" edge="1">
          <mxGeometry relative="1" as="geometry">
            <mxPoint x="4" y="28" as="targetPoint" />
            <mxPoint x="4" y="8" as="sourcePoint" />
          </mxGeometry>
        </mxCell>
        <mxCell id="Y12jz9-HYDBSCUgoRnp5-296" value="&lt;font style=&quot;font-size: 8px;&quot;&gt;frecuencia&lt;/font&gt;" style="text;html=1;align=center;verticalAlign=middle;resizable=0;points=[];autosize=1;strokeColor=none;fillColor=none;rotation=-60;" parent="1" vertex="1">
          <mxGeometry x="373" y="-861.4984757729337" width="70" height="30" as="geometry" />
        </mxCell>
        <mxCell id="Y12jz9-HYDBSCUgoRnp5-297" value="" style="curved=1;endArrow=none;html=1;rounded=0;startFill=0;" parent="1" edge="1">
          <mxGeometry width="50" height="50" relative="1" as="geometry">
            <mxPoint x="340" y="-934.5" as="sourcePoint" />
            <mxPoint x="379" y="-801.5" as="targetPoint" />
            <Array as="points">
              <mxPoint x="381" y="-899.5" />
              <mxPoint x="481" y="-869.5" />
              <mxPoint x="461" y="-799.5" />
            </Array>
          </mxGeometry>
        </mxCell>
        <mxCell id="Y12jz9-HYDBSCUgoRnp5-300" value="" style="group" parent="1" vertex="1" connectable="0">
          <mxGeometry x="372" y="-805.4984757729337" width="8" height="28" as="geometry" />
        </mxCell>
        <mxCell id="Y12jz9-HYDBSCUgoRnp5-301" value="" style="ellipse;whiteSpace=wrap;html=1;aspect=fixed;fillColor=light-dark(#FFFFFF,#FFFFFF);" parent="Y12jz9-HYDBSCUgoRnp5-300" vertex="1">
          <mxGeometry width="8" height="8" as="geometry" />
        </mxCell>
        <mxCell id="Y12jz9-HYDBSCUgoRnp5-304" value="Tutor" style="rounded=0;whiteSpace=wrap;html=1;" parent="1" vertex="1">
          <mxGeometry x="-521" y="-781" width="200" height="60" as="geometry" />
        </mxCell>
        <mxCell id="Y12jz9-HYDBSCUgoRnp5-305" value="" style="endArrow=none;html=1;rounded=0;exitX=0.5;exitY=0;exitDx=0;exitDy=0;" parent="1" source="Y12jz9-HYDBSCUgoRnp5-304" edge="1">
          <mxGeometry width="50" height="50" relative="1" as="geometry">
            <mxPoint x="-422" y="-780.9999999999998" as="sourcePoint" />
            <mxPoint x="-421" y="-880" as="targetPoint" />
          </mxGeometry>
        </mxCell>
        <mxCell id="Y12jz9-HYDBSCUgoRnp5-306" value="" style="group" parent="1" vertex="1" connectable="0">
          <mxGeometry x="-398" y="-808.9984757729337" width="8" height="28" as="geometry" />
        </mxCell>
        <mxCell id="Y12jz9-HYDBSCUgoRnp5-307" value="" style="ellipse;whiteSpace=wrap;html=1;aspect=fixed;fillColor=light-dark(#FFFFFF,transparent);" parent="Y12jz9-HYDBSCUgoRnp5-306" vertex="1">
          <mxGeometry width="8" height="8" as="geometry" />
        </mxCell>
        <mxCell id="Y12jz9-HYDBSCUgoRnp5-308" style="edgeStyle=orthogonalEdgeStyle;rounded=0;orthogonalLoop=1;jettySize=auto;html=1;endArrow=none;startFill=0;" parent="Y12jz9-HYDBSCUgoRnp5-306" edge="1">
          <mxGeometry relative="1" as="geometry">
            <mxPoint x="4" y="28" as="targetPoint" />
            <mxPoint x="4" y="8" as="sourcePoint" />
          </mxGeometry>
        </mxCell>
        <mxCell id="Y12jz9-HYDBSCUgoRnp5-309" value="&lt;font style=&quot;font-size: 8px;&quot;&gt;telefono(1,n)&lt;/font&gt;" style="text;html=1;align=center;verticalAlign=middle;resizable=0;points=[];autosize=1;strokeColor=none;fillColor=none;rotation=-60;" parent="1" vertex="1">
          <mxGeometry x="-405" y="-855.9984757729337" width="90" height="30" as="geometry" />
        </mxCell>
        <mxCell id="Y12jz9-HYDBSCUgoRnp5-310" value="" style="group" parent="1" vertex="1" connectable="0">
          <mxGeometry x="-377.5" y="-808.7484757729337" width="8" height="28" as="geometry" />
        </mxCell>
        <mxCell id="Y12jz9-HYDBSCUgoRnp5-311" value="" style="ellipse;whiteSpace=wrap;html=1;aspect=fixed;fillColor=light-dark(#FFFFFF,transparent);" parent="Y12jz9-HYDBSCUgoRnp5-310" vertex="1">
          <mxGeometry width="8" height="8" as="geometry" />
        </mxCell>
        <mxCell id="Y12jz9-HYDBSCUgoRnp5-312" style="edgeStyle=orthogonalEdgeStyle;rounded=0;orthogonalLoop=1;jettySize=auto;html=1;endArrow=none;startFill=0;" parent="Y12jz9-HYDBSCUgoRnp5-310" edge="1">
          <mxGeometry relative="1" as="geometry">
            <mxPoint x="4" y="28" as="targetPoint" />
            <mxPoint x="4" y="8" as="sourcePoint" />
          </mxGeometry>
        </mxCell>
        <mxCell id="Y12jz9-HYDBSCUgoRnp5-313" value="&lt;font style=&quot;font-size: 8px;&quot;&gt;vinculo&lt;/font&gt;" style="text;html=1;align=center;verticalAlign=middle;resizable=0;points=[];autosize=1;strokeColor=none;fillColor=none;rotation=-60;" parent="1" vertex="1">
          <mxGeometry x="-417" y="-843.9984757729337" width="60" height="30" as="geometry" />
        </mxCell>
        <mxCell id="Y12jz9-HYDBSCUgoRnp5-314" value="" style="group" parent="1" vertex="1" connectable="0">
          <mxGeometry x="-358" y="-808.7484757729337" width="8" height="28" as="geometry" />
        </mxCell>
        <mxCell id="Y12jz9-HYDBSCUgoRnp5-315" value="" style="ellipse;whiteSpace=wrap;html=1;aspect=fixed;fillColor=light-dark(#FFFFFF,transparent);" parent="Y12jz9-HYDBSCUgoRnp5-314" vertex="1">
          <mxGeometry width="8" height="8" as="geometry" />
        </mxCell>
        <mxCell id="Y12jz9-HYDBSCUgoRnp5-316" style="edgeStyle=orthogonalEdgeStyle;rounded=0;orthogonalLoop=1;jettySize=auto;html=1;endArrow=none;startFill=0;" parent="Y12jz9-HYDBSCUgoRnp5-314" edge="1">
          <mxGeometry relative="1" as="geometry">
            <mxPoint x="4" y="28" as="targetPoint" />
            <mxPoint x="4" y="8" as="sourcePoint" />
          </mxGeometry>
        </mxCell>
        <mxCell id="Y12jz9-HYDBSCUgoRnp5-317" value="&lt;font style=&quot;font-size: 8px;&quot;&gt;direccion&lt;/font&gt;" style="text;html=1;align=center;verticalAlign=middle;resizable=0;points=[];autosize=1;strokeColor=none;fillColor=none;rotation=-60;" parent="1" vertex="1">
          <mxGeometry x="-380" y="-848.9984757729337" width="70" height="30" as="geometry" />
        </mxCell>
        <mxCell id="Y12jz9-HYDBSCUgoRnp5-319" style="edgeStyle=orthogonalEdgeStyle;rounded=0;orthogonalLoop=1;jettySize=auto;html=1;entryX=0;entryY=0.5;entryDx=0;entryDy=0;endArrow=none;startFill=0;" parent="1" source="Y12jz9-HYDBSCUgoRnp5-318" target="Y12jz9-HYDBSCUgoRnp5-164" edge="1">
          <mxGeometry relative="1" as="geometry">
            <Array as="points">
              <mxPoint x="-210" y="-750" />
              <mxPoint x="-210" y="-750" />
            </Array>
          </mxGeometry>
        </mxCell>
        <mxCell id="Y12jz9-HYDBSCUgoRnp5-320" style="edgeStyle=orthogonalEdgeStyle;rounded=0;orthogonalLoop=1;jettySize=auto;html=1;entryX=1;entryY=0.5;entryDx=0;entryDy=0;endArrow=none;startFill=0;" parent="1" source="Y12jz9-HYDBSCUgoRnp5-318" target="Y12jz9-HYDBSCUgoRnp5-304" edge="1">
          <mxGeometry relative="1" as="geometry" />
        </mxCell>
        <mxCell id="Y12jz9-HYDBSCUgoRnp5-318" value="hospeda" style="rhombus;whiteSpace=wrap;html=1;" parent="1" vertex="1">
          <mxGeometry x="-300" y="-790.7497459621558" width="80" height="80" as="geometry" />
        </mxCell>
        <mxCell id="Y12jz9-HYDBSCUgoRnp5-321" value="(1,n)" style="text;html=1;align=center;verticalAlign=middle;resizable=0;points=[];autosize=1;strokeColor=none;fillColor=none;" parent="1" vertex="1">
          <mxGeometry x="-251" y="-800" width="60" height="30" as="geometry" />
        </mxCell>
        <mxCell id="Y12jz9-HYDBSCUgoRnp5-322" value="(1,1)" style="text;html=1;align=center;verticalAlign=middle;resizable=0;points=[];autosize=1;strokeColor=none;fillColor=none;" parent="1" vertex="1">
          <mxGeometry x="-331" y="-800" width="60" height="30" as="geometry" />
        </mxCell>
        <mxCell id="Y12jz9-HYDBSCUgoRnp5-324" value="autorizada" style="rhombus;whiteSpace=wrap;html=1;" parent="1" vertex="1">
          <mxGeometry x="-139.5" y="-1008.9997459621558" width="80" height="80" as="geometry" />
        </mxCell>
        <mxCell id="Y12jz9-HYDBSCUgoRnp5-325" value="(0,n)" style="text;html=1;align=center;verticalAlign=middle;resizable=0;points=[];autosize=1;strokeColor=none;fillColor=none;" parent="1" vertex="1">
          <mxGeometry x="-320" y="-998.75" width="60" height="30" as="geometry" />
        </mxCell>
        <mxCell id="Y12jz9-HYDBSCUgoRnp5-326" value="(0,n)" style="text;html=1;align=center;verticalAlign=middle;resizable=0;points=[];autosize=1;strokeColor=none;fillColor=none;" parent="1" vertex="1">
          <mxGeometry x="-157.5" y="-813" width="60" height="30" as="geometry" />
        </mxCell>
        <mxCell id="Y12jz9-HYDBSCUgoRnp5-333" value="&lt;font style=&quot;font-size: 8px;&quot;&gt;fecha_ingreso&lt;/font&gt;" style="text;html=1;align=center;verticalAlign=middle;resizable=0;points=[];autosize=1;strokeColor=none;fillColor=none;rotation=-60;" parent="1" vertex="1">
          <mxGeometry x="-252" y="-668.9984757729337" width="90" height="30" as="geometry" />
        </mxCell>
        <mxCell id="Y12jz9-HYDBSCUgoRnp5-334" value="" style="group" parent="1" vertex="1" connectable="0">
          <mxGeometry x="-188" y="-620.5" width="8" height="28" as="geometry" />
        </mxCell>
        <mxCell id="Y12jz9-HYDBSCUgoRnp5-335" value="" style="ellipse;whiteSpace=wrap;html=1;aspect=fixed;fillColor=light-dark(#FFFFFF,transparent);" parent="Y12jz9-HYDBSCUgoRnp5-334" vertex="1">
          <mxGeometry width="8" height="8" as="geometry" />
        </mxCell>
        <mxCell id="Y12jz9-HYDBSCUgoRnp5-336" style="edgeStyle=orthogonalEdgeStyle;rounded=0;orthogonalLoop=1;jettySize=auto;html=1;endArrow=none;startFill=0;" parent="Y12jz9-HYDBSCUgoRnp5-334" edge="1">
          <mxGeometry relative="1" as="geometry">
            <mxPoint x="4" y="28" as="targetPoint" />
            <mxPoint x="4" y="8" as="sourcePoint" />
          </mxGeometry>
        </mxCell>
        <mxCell id="Y12jz9-HYDBSCUgoRnp5-338" value="" style="group" parent="1" vertex="1" connectable="0">
          <mxGeometry x="-224" y="-619.5" width="8" height="28" as="geometry" />
        </mxCell>
        <mxCell id="Y12jz9-HYDBSCUgoRnp5-339" value="" style="ellipse;whiteSpace=wrap;html=1;aspect=fixed;fillColor=light-dark(#FFFFFF,transparent);" parent="Y12jz9-HYDBSCUgoRnp5-338" vertex="1">
          <mxGeometry width="8" height="8" as="geometry" />
        </mxCell>
        <mxCell id="Y12jz9-HYDBSCUgoRnp5-340" style="edgeStyle=orthogonalEdgeStyle;rounded=0;orthogonalLoop=1;jettySize=auto;html=1;endArrow=none;startFill=0;" parent="Y12jz9-HYDBSCUgoRnp5-338" edge="1">
          <mxGeometry relative="1" as="geometry">
            <mxPoint x="4" y="28" as="targetPoint" />
            <mxPoint x="4" y="8" as="sourcePoint" />
          </mxGeometry>
        </mxCell>
        <mxCell id="Y12jz9-HYDBSCUgoRnp5-341" value="&lt;font style=&quot;font-size: 8px;&quot;&gt;fecha_egreso(0,1)&lt;/font&gt;" style="text;html=1;align=center;verticalAlign=middle;resizable=0;points=[];autosize=1;strokeColor=none;fillColor=none;rotation=-60;" parent="1" vertex="1">
          <mxGeometry x="-220" y="-675.9984757729337" width="110" height="30" as="geometry" />
        </mxCell>
        <mxCell id="Y12jz9-HYDBSCUgoRnp5-342" style="edgeStyle=orthogonalEdgeStyle;rounded=0;orthogonalLoop=1;jettySize=auto;html=1;entryX=1;entryY=0.353;entryDx=0;entryDy=0;entryPerimeter=0;endArrow=none;startFill=0;" parent="1" source="Y12jz9-HYDBSCUgoRnp5-343" target="Y12jz9-HYDBSCUgoRnp5-164" edge="1">
          <mxGeometry relative="1" as="geometry" />
        </mxCell>
        <mxCell id="Y12jz9-HYDBSCUgoRnp5-344" value="" style="edgeStyle=orthogonalEdgeStyle;rounded=0;orthogonalLoop=1;jettySize=auto;html=1;entryX=1;entryY=0.5;entryDx=0;entryDy=0;endArrow=none;startFill=0;" parent="1" source="Y12jz9-HYDBSCUgoRnp5-275" target="Y12jz9-HYDBSCUgoRnp5-343" edge="1">
          <mxGeometry relative="1" as="geometry">
            <mxPoint x="240" y="-760" as="sourcePoint" />
            <mxPoint x="1" y="-760" as="targetPoint" />
          </mxGeometry>
        </mxCell>
        <mxCell id="Y12jz9-HYDBSCUgoRnp5-343" value="toma" style="rhombus;whiteSpace=wrap;html=1;" parent="1" vertex="1">
          <mxGeometry x="80" y="-799.7497459621558" width="80" height="80" as="geometry" />
        </mxCell>
        <mxCell id="Y12jz9-HYDBSCUgoRnp5-345" value="(0,n)" style="text;html=1;align=center;verticalAlign=middle;resizable=0;points=[];autosize=1;strokeColor=none;fillColor=none;" parent="1" vertex="1">
          <mxGeometry x="-1" y="-789.5" width="60" height="30" as="geometry" />
        </mxCell>
        <mxCell id="Y12jz9-HYDBSCUgoRnp5-346" value="(0,n)" style="text;html=1;align=center;verticalAlign=middle;resizable=0;points=[];autosize=1;strokeColor=none;fillColor=none;" parent="1" vertex="1">
          <mxGeometry x="180" y="-790.75" width="60" height="30" as="geometry" />
        </mxCell>
        <mxCell id="Y12jz9-HYDBSCUgoRnp5-347" value="" style="group" parent="1" vertex="1" connectable="0">
          <mxGeometry x="86" y="-797.9984757729337" width="8" height="28" as="geometry" />
        </mxCell>
        <mxCell id="Y12jz9-HYDBSCUgoRnp5-348" value="" style="ellipse;whiteSpace=wrap;html=1;aspect=fixed;fillColor=light-dark(#FFFFFF,transparent);" parent="Y12jz9-HYDBSCUgoRnp5-347" vertex="1">
          <mxGeometry width="8" height="8" as="geometry" />
        </mxCell>
        <mxCell id="Y12jz9-HYDBSCUgoRnp5-349" style="edgeStyle=orthogonalEdgeStyle;rounded=0;orthogonalLoop=1;jettySize=auto;html=1;endArrow=none;startFill=0;" parent="Y12jz9-HYDBSCUgoRnp5-347" edge="1">
          <mxGeometry relative="1" as="geometry">
            <mxPoint x="4" y="28" as="targetPoint" />
            <mxPoint x="4" y="8" as="sourcePoint" />
          </mxGeometry>
        </mxCell>
        <mxCell id="Y12jz9-HYDBSCUgoRnp5-350" value="&lt;font style=&quot;font-size: 8px;&quot;&gt;hora&lt;/font&gt;" style="text;html=1;align=center;verticalAlign=middle;resizable=0;points=[];autosize=1;strokeColor=none;fillColor=none;rotation=-60;" parent="1" vertex="1">
          <mxGeometry x="103" y="-858.9984757729337" width="40" height="30" as="geometry" />
        </mxCell>
        <mxCell id="Y12jz9-HYDBSCUgoRnp5-351" value="" style="group" parent="1" vertex="1" connectable="0">
          <mxGeometry x="116" y="-827.9984757729337" width="8" height="28" as="geometry" />
        </mxCell>
        <mxCell id="Y12jz9-HYDBSCUgoRnp5-352" value="" style="ellipse;whiteSpace=wrap;html=1;aspect=fixed;fillColor=light-dark(#FFFFFF,transparent);" parent="Y12jz9-HYDBSCUgoRnp5-351" vertex="1">
          <mxGeometry width="8" height="8" as="geometry" />
        </mxCell>
        <mxCell id="Y12jz9-HYDBSCUgoRnp5-353" style="edgeStyle=orthogonalEdgeStyle;rounded=0;orthogonalLoop=1;jettySize=auto;html=1;endArrow=none;startFill=0;" parent="Y12jz9-HYDBSCUgoRnp5-351" edge="1">
          <mxGeometry relative="1" as="geometry">
            <mxPoint x="4" y="28" as="targetPoint" />
            <mxPoint x="4" y="8" as="sourcePoint" />
          </mxGeometry>
        </mxCell>
        <mxCell id="Y12jz9-HYDBSCUgoRnp5-354" value="&lt;font style=&quot;font-size: 8px;&quot;&gt;fecha&lt;/font&gt;" style="text;html=1;align=center;verticalAlign=middle;resizable=0;points=[];autosize=1;strokeColor=none;fillColor=none;rotation=-60;" parent="1" vertex="1">
          <mxGeometry x="68" y="-828.9984757729337" width="50" height="30" as="geometry" />
        </mxCell>
        <mxCell id="Y12jz9-HYDBSCUgoRnp5-355" value="" style="group" parent="1" vertex="1" connectable="0">
          <mxGeometry x="146" y="-797.9984757729337" width="8" height="28" as="geometry" />
        </mxCell>
        <mxCell id="Y12jz9-HYDBSCUgoRnp5-356" value="" style="ellipse;whiteSpace=wrap;html=1;aspect=fixed;fillColor=light-dark(#FFFFFF,transparent);" parent="Y12jz9-HYDBSCUgoRnp5-355" vertex="1">
          <mxGeometry width="8" height="8" as="geometry" />
        </mxCell>
        <mxCell id="Y12jz9-HYDBSCUgoRnp5-357" style="edgeStyle=orthogonalEdgeStyle;rounded=0;orthogonalLoop=1;jettySize=auto;html=1;endArrow=none;startFill=0;" parent="Y12jz9-HYDBSCUgoRnp5-355" edge="1">
          <mxGeometry relative="1" as="geometry">
            <mxPoint x="4" y="28" as="targetPoint" />
            <mxPoint x="4" y="8" as="sourcePoint" />
          </mxGeometry>
        </mxCell>
        <mxCell id="Y12jz9-HYDBSCUgoRnp5-358" value="&lt;font style=&quot;font-size: 8px;&quot;&gt;enfermero&lt;/font&gt;" style="text;html=1;align=center;verticalAlign=middle;resizable=0;points=[];autosize=1;strokeColor=none;fillColor=none;rotation=-60;" parent="1" vertex="1">
          <mxGeometry x="123" y="-836.9984757729337" width="70" height="30" as="geometry" />
        </mxCell>
        <mxCell id="Y12jz9-HYDBSCUgoRnp5-372" value="" style="group" parent="1" vertex="1" connectable="0">
          <mxGeometry x="-133.5" y="-1006.9984757729337" width="8" height="28" as="geometry" />
        </mxCell>
        <mxCell id="Y12jz9-HYDBSCUgoRnp5-373" value="" style="ellipse;whiteSpace=wrap;html=1;aspect=fixed;fillColor=light-dark(#FFFFFF,transparent);" parent="Y12jz9-HYDBSCUgoRnp5-372" vertex="1">
          <mxGeometry width="8" height="8" as="geometry" />
        </mxCell>
        <mxCell id="Y12jz9-HYDBSCUgoRnp5-374" style="edgeStyle=orthogonalEdgeStyle;rounded=0;orthogonalLoop=1;jettySize=auto;html=1;endArrow=none;startFill=0;" parent="Y12jz9-HYDBSCUgoRnp5-372" edge="1">
          <mxGeometry relative="1" as="geometry">
            <mxPoint x="4" y="28" as="targetPoint" />
            <mxPoint x="4" y="8" as="sourcePoint" />
          </mxGeometry>
        </mxCell>
        <mxCell id="Y12jz9-HYDBSCUgoRnp5-375" value="&lt;font style=&quot;font-size: 8px;&quot;&gt;hora&lt;/font&gt;" style="text;html=1;align=center;verticalAlign=middle;resizable=0;points=[];autosize=1;strokeColor=none;fillColor=none;rotation=-60;" parent="1" vertex="1">
          <mxGeometry x="-116" y="-1066.9984757729337" width="40" height="30" as="geometry" />
        </mxCell>
        <mxCell id="Y12jz9-HYDBSCUgoRnp5-376" value="" style="group" parent="1" vertex="1" connectable="0">
          <mxGeometry x="-103.5" y="-1035.9984757729337" width="8" height="28" as="geometry" />
        </mxCell>
        <mxCell id="Y12jz9-HYDBSCUgoRnp5-377" value="" style="ellipse;whiteSpace=wrap;html=1;aspect=fixed;fillColor=light-dark(#FFFFFF,transparent);" parent="Y12jz9-HYDBSCUgoRnp5-376" vertex="1">
          <mxGeometry width="8" height="8" as="geometry" />
        </mxCell>
        <mxCell id="Y12jz9-HYDBSCUgoRnp5-378" style="edgeStyle=orthogonalEdgeStyle;rounded=0;orthogonalLoop=1;jettySize=auto;html=1;endArrow=none;startFill=0;" parent="Y12jz9-HYDBSCUgoRnp5-376" edge="1">
          <mxGeometry relative="1" as="geometry">
            <mxPoint x="4" y="28" as="targetPoint" />
            <mxPoint x="4" y="8" as="sourcePoint" />
          </mxGeometry>
        </mxCell>
        <mxCell id="Y12jz9-HYDBSCUgoRnp5-379" value="&lt;font style=&quot;font-size: 8px;&quot;&gt;fecha&lt;/font&gt;" style="text;html=1;align=center;verticalAlign=middle;resizable=0;points=[];autosize=1;strokeColor=none;fillColor=none;rotation=-60;" parent="1" vertex="1">
          <mxGeometry x="-151" y="-1036.9984757729337" width="50" height="30" as="geometry" />
        </mxCell>
        <mxCell id="Y12jz9-HYDBSCUgoRnp5-380" value="" style="group" parent="1" vertex="1" connectable="0">
          <mxGeometry x="-73.5" y="-1006.9984757729337" width="8" height="28" as="geometry" />
        </mxCell>
        <mxCell id="Y12jz9-HYDBSCUgoRnp5-381" value="" style="ellipse;whiteSpace=wrap;html=1;aspect=fixed;fillColor=light-dark(#FFFFFF,transparent);" parent="Y12jz9-HYDBSCUgoRnp5-380" vertex="1">
          <mxGeometry width="8" height="8" as="geometry" />
        </mxCell>
        <mxCell id="Y12jz9-HYDBSCUgoRnp5-382" style="edgeStyle=orthogonalEdgeStyle;rounded=0;orthogonalLoop=1;jettySize=auto;html=1;endArrow=none;startFill=0;" parent="Y12jz9-HYDBSCUgoRnp5-380" edge="1">
          <mxGeometry relative="1" as="geometry">
            <mxPoint x="4" y="28" as="targetPoint" />
            <mxPoint x="4" y="8" as="sourcePoint" />
          </mxGeometry>
        </mxCell>
        <mxCell id="Y12jz9-HYDBSCUgoRnp5-383" value="&lt;font style=&quot;font-size: 8px;&quot;&gt;enfermero(0,1)&lt;/font&gt;" style="text;html=1;align=center;verticalAlign=middle;resizable=0;points=[];autosize=1;strokeColor=none;fillColor=none;rotation=-60;" parent="1" vertex="1">
          <mxGeometry x="-100" y="-1057.0384757729337" width="90" height="30" as="geometry" />
        </mxCell>
      </root>
    </mxGraphModel>
  </diagram>
</mxfile>
